<?xml version="1.0" standalone="no"?>
<!DOCTYPE svg PUBLIC "-//W3C//DTD SVG 20010904//EN"
 "http://www.w3.org/TR/2001/REC-SVG-20010904/DTD/svg10.dtd">
<svg version="1.0" xmlns="http://www.w3.org/2000/svg"
 width="256.000000pt" height="256.000000pt" viewBox="0 0 256.000000 256.000000"
 preserveAspectRatio="xMidYMid meet">
<metadata>
Created by potrace 1.11, written by Peter Selinger 2001-2013
</metadata>
<g transform="translate(0.000000,256.000000) scale(0.100000,-0.100000)"
fill="#000000" stroke="none">
<path d="M1090 2260 c-101 -21 -155 -39 -230 -73 -54 -25 -130 -67 -140 -77
-3 -3 -23 -18 -45 -34 -103 -76 -218 -213 -278 -331 -89 -177 -111 -268 -111
-465 0 -147 7 -199 46 -315 31 -91 113 -250 148 -285 3 -3 26 -30 52 -61 47
-56 163 -157 209 -181 13 -7 36 -21 50 -31 47 -31 192 -84 286 -105 71 -15
122 -19 220 -17 70 2 139 5 153 9 14 3 48 11 75 17 54 13 169 56 225 86 218
115 400 331 480 572 57 171 62 361 16 566 -34 152 -132 321 -262 451 -140 140
-308 232 -504 274 -92 21 -293 20 -390 0z"/>
</g>
</svg>
